<svg version="1.1" id="Layer_1" xmlns="http://www.w3.org/2000/svg" xmlns:xlink="http://www.w3.org/1999/xlink" x="0px" y="0px"
	 width="100%" viewBox="0 0 1024 672" enable-background="new 0 0 1024 672" xml:space="preserve">
<path fill="#FCD563" opacity="1.000000" stroke="none" 
	d="
M336.818176,331.623016 
	C352.562927,326.899445 368.056732,324.547119 384.155609,328.604340 
	C366.684662,320.348846 352.026459,309.310242 341.854126,292.582733 
	C331.559143,275.653503 330.306610,257.317993 330.890900,237.311661 
	C344.485260,243.605698 358.646362,244.366287 372.498749,249.566986 
	C369.460602,230.377777 367.525848,211.709991 370.224213,192.282303 
	C386.227264,203.703049 405.839691,203.895935 422.527222,212.048035 
	C423.098022,212.326874 423.794220,212.348999 425.589569,212.748108 
	C423.822144,196.176956 433.841431,183.534866 438.306519,167.874649 
	C449.940674,179.808899 466.524109,182.464645 476.752533,195.926971 
	C488.499481,178.251450 501.927643,162.479858 512.834717,143.854172 
	C524.059937,162.053391 536.906189,178.232513 548.600708,196.319366 
	C558.076111,181.721313 575.219910,179.530579 586.941223,167.740753 
	C591.912781,182.963348 599.846802,196.254654 599.413574,213.051270 
	C617.839600,204.978790 637.474182,203.146790 654.841553,192.521103 
	C656.823669,211.241547 657.143677,229.449371 652.753296,248.246368 
	C667.237183,245.994080 680.618469,243.266281 694.645630,237.497086 
	C694.037354,258.402374 693.691650,278.223175 681.263184,295.718933 
	C669.224609,312.665863 652.961243,323.404785 633.499634,329.970154 
	C634.500916,331.328979 635.638672,330.685730 636.662292,330.385132 
	C653.086426,325.562500 669.423889,325.253998 685.681396,331.172577 
	C688.807983,332.310822 692.014709,333.228241 695.179626,334.262268 
	C706.408997,337.931335 717.236816,336.249634 727.630615,331.373688 
	C736.315247,327.299530 741.193604,319.100372 740.528076,310.710938 
	C738.927612,310.013184 738.128174,311.486481 737.179626,312.153015 
	C730.011841,317.190094 722.737793,316.990967 715.762329,312.172180 
	C708.501709,307.156433 705.047180,300.005280 705.940552,291.082489 
	C706.303650,287.456787 707.980713,284.074066 708.054688,280.336090 
	C708.089539,278.576996 709.627136,277.435455 711.001343,276.488556 
	C723.748779,267.704590 737.215271,266.106171 751.056580,273.408844 
	C764.984985,280.757416 772.749573,292.426819 771.004333,308.402649 
	C769.329834,323.730621 759.849670,334.129364 746.121399,340.396759 
	C732.019775,346.834625 717.159546,347.395874 702.061829,344.684509 
	C691.554932,342.797577 681.452820,339.354889 671.134338,336.746552 
	C663.224487,334.747009 655.221924,334.554474 647.104797,336.247284 
	C650.675903,336.598633 654.292908,336.698364 657.810730,337.341095 
	C685.977417,342.487366 713.081238,350.794739 738.413452,364.437195 
	C754.505493,373.103455 771.325989,378.835815 790.059021,376.784454 
	C798.141968,375.899323 805.764038,373.808319 812.723328,369.635376 
	C819.769775,365.410156 823.617493,359.161591 823.265930,350.855164 
	C826.424438,350.319916 825.801880,353.535095 827.855408,354.186951 
	C831.258362,351.883484 831.677429,347.908478 832.223999,344.319153 
	C833.937012,333.071075 830.704346,323.276245 821.464661,316.454773 
	C813.604980,310.652161 804.585266,310.560364 795.825684,314.569824 
	C787.229858,318.504333 784.725464,327.335968 789.795898,334.392792 
	C791.755066,337.119537 794.450562,338.636871 797.820190,338.832764 
	C803.253601,339.148682 806.172546,335.159027 804.239380,330.035858 
	C803.899536,329.135071 802.997986,328.410492 803.754822,326.944946 
	C806.781311,326.301361 807.357605,328.947388 807.984375,330.876404 
	C810.402100,338.317352 805.037415,345.659180 796.864685,346.337402 
	C783.096863,347.479980 772.886841,333.373962 777.583618,319.699005 
	C783.103455,303.627686 804.741760,294.263702 821.471436,300.128845 
	C852.071167,310.856628 857.125488,348.040253 839.267212,370.454865 
	C823.360779,390.419800 802.212524,394.839630 778.360352,391.662933 
	C774.430664,391.139526 770.545349,390.282440 766.522766,390.019745 
	C777.454773,395.730804 788.926758,399.776123 801.289612,400.667358 
	C809.451538,401.255737 817.641418,401.126617 825.313843,397.569641 
	C827.732788,396.448181 829.799255,395.614136 828.968689,391.739685 
	C828.222351,388.258362 830.821655,385.076874 833.823853,383.120941 
	C836.450134,381.409882 839.440063,383.795929 839.151978,387.258972 
	C839.018250,388.866852 838.390503,390.433624 837.934570,392.223633 
	C841.293091,393.762817 843.896057,391.950592 846.409790,390.576630 
	C852.527161,387.232971 858.571167,383.749420 864.565552,380.188965 
	C867.790100,378.273712 870.741821,376.022278 869.133972,371.498749 
	C875.960754,371.312042 878.037354,369.125458 877.716248,362.254974 
	C877.486511,357.339966 879.558716,354.261963 884.221069,352.967529 
	C886.321045,352.384491 888.606812,351.946320 890.261292,353.930084 
	C891.971985,355.981293 891.642334,358.288177 890.448547,360.473175 
	C888.181885,364.621735 885.020264,368.016693 881.424866,371.052185 
	C872.492920,378.593140 863.198242,385.595001 852.654724,390.787781 
	C852.128662,391.046875 851.754639,391.614777 851.669006,392.988037 
	C855.892700,391.878326 860.158813,390.906738 864.330383,389.627014 
	C870.850769,387.626678 877.386108,387.011566 884.032349,388.791656 
	C888.842834,390.080078 893.000305,392.390656 895.689209,396.776764 
	C898.463867,401.302612 897.545410,406.575500 893.484924,409.759766 
	C888.941956,413.322388 882.483765,413.182159 878.283813,408.973846 
	C881.721252,409.312561 884.754211,410.309174 887.479431,407.867004 
	C891.281311,404.460083 891.574219,401.111145 887.696411,397.808105 
	C884.142761,394.781158 879.859497,393.603180 875.254578,393.238800 
	C867.095581,392.593323 859.400696,394.371704 851.790161,397.119476 
	C842.734497,400.389008 833.579346,403.382935 823.490417,406.830017 
	C826.692139,408.523712 829.278381,408.498138 831.760620,408.677094 
	C838.071045,409.132080 843.832703,411.213684 849.038452,414.676025 
	C853.823730,417.858765 856.164429,423.601990 854.867981,428.001007 
	C853.376892,433.060455 849.274780,436.137482 843.254639,436.712402 
	C837.269958,437.283905 832.693665,434.009186 831.979065,428.008270 
	C831.595642,424.788696 829.828613,423.407959 827.305908,422.198029 
	C825.253479,421.213593 822.952332,421.084137 820.998901,419.472046 
	C819.522339,418.253510 817.038818,418.255157 814.883911,417.681976 
	C815.947021,415.193024 818.251221,415.225677 820.027100,415.088928 
	C826.483521,414.591705 832.719482,415.953949 838.228943,419.280090 
	C840.862366,420.869934 844.246704,423.181671 839.729187,426.950134 
	C837.430603,428.867462 838.371704,430.894409 841.254395,431.534332 
	C843.644043,432.064850 845.944397,431.763428 847.514709,429.540497 
	C849.153992,427.219971 849.033264,424.780640 847.534912,422.515869 
	C844.634827,418.132324 840.316101,415.746063 835.386719,414.298737 
	C829.736938,412.639862 823.911865,412.340851 818.099243,412.335571 
	C807.550110,412.325989 797.188660,410.918457 786.898376,408.760376 
	C785.639771,408.496399 784.338013,407.898163 783.075439,408.899414 
	C782.730774,410.506195 784.112061,410.844818 785.026794,411.376373 
	C794.077087,416.635254 802.776306,422.662994 813.522461,424.208466 
	C814.946289,424.413208 816.393921,425.159058 817.607361,425.982941 
	C820.885254,428.208588 823.742371,428.503174 826.007874,424.408691 
	C829.617493,425.958344 831.321777,428.666565 829.854004,431.939484 
	C828.245605,435.525879 824.963074,436.161652 821.436890,434.088928 
	C821.006165,433.835724 820.585205,433.338837 820.158997,433.337982 
	C806.206421,433.310059 798.408752,421.563660 787.597351,415.674683 
	C772.443298,407.420258 757.489685,398.695007 742.442322,390.177643 
	C733.942993,385.366730 725.682312,380.061401 717.205750,375.126740 
	C698.635620,364.316101 679.169678,360.345490 658.204590,365.597595 
	C653.522888,366.770477 649.758972,370.194824 645.767883,372.900909 
	C627.128357,385.539124 606.798218,393.188812 584.062805,393.023621 
	C573.342896,392.945770 562.915161,390.651947 553.000977,386.372009 
	C550.878845,385.455872 548.730408,384.600800 546.276123,383.586121 
	C545.594482,387.328491 547.617859,390.273682 547.611267,393.581726 
	C547.582764,407.881317 539.444275,417.845886 530.157593,427.202789 
	C524.658752,432.743164 517.784607,436.767303 512.617493,443.369446 
	C503.101166,434.063232 491.855865,427.167847 484.513397,416.224213 
	C478.552277,407.339355 475.398590,397.726532 478.346313,386.896759 
	C478.606995,385.939056 478.865387,384.944061 478.015411,383.934204 
	C475.438141,383.771240 473.439697,385.514801 471.214233,386.449432 
	C446.416901,396.863464 422.096252,394.619904 398.109192,383.788239 
	C390.196411,380.215118 382.490509,376.089386 375.677185,370.754425 
	C368.516785,365.147644 360.212738,364.187073 351.826050,363.397675 
	C338.305084,362.125122 325.933685,366.200653 313.759918,371.760742 
	C303.209015,376.579651 294.096771,383.552826 284.351410,389.585449 
	C266.926300,400.372101 248.497910,408.716400 227.842300,410.875641 
	C217.913910,411.913513 207.917297,412.282440 197.963959,413.104340 
	C192.091568,413.589203 186.473587,415.077026 181.517258,418.467651 
	C179.422516,419.900635 177.419373,421.472748 177.100281,424.217285 
	C176.807983,426.731384 176.622681,429.392853 179.290634,430.861328 
	C181.706161,432.190857 184.060013,431.924194 186.039841,429.871002 
	C182.966019,420.785553 183.018799,420.928802 192.953201,417.268341 
	C199.119873,414.996094 205.234909,415.657684 211.410034,415.926056 
	C211.485901,416.349976 211.561752,416.773865 211.637604,417.197784 
	C207.971176,418.204163 204.304993,419.211395 200.638275,420.216705 
	C196.869370,421.250000 192.698044,421.349426 189.878876,424.676056 
	C193.908356,430.298737 192.090103,434.919098 185.376175,436.507568 
	C180.069229,437.763123 173.683548,434.953491 171.262405,430.297638 
	C168.786972,425.537384 170.221481,419.608551 175.017624,415.522522 
	C180.599640,410.766937 187.370667,409.281677 194.458313,408.696136 
	C197.191330,408.470398 199.904480,408.003906 203.730606,407.502441 
	C198.472717,403.932922 193.311203,403.949036 188.743484,402.264221 
	C182.186035,399.845490 175.518066,397.724762 168.886902,395.507904 
	C160.817841,392.810364 152.622498,392.102234 144.306198,394.197327 
	C142.870224,394.559113 141.452972,395.163849 140.160233,395.892609 
	C136.879822,397.741669 133.489639,399.776276 135.230347,404.390533 
	C136.777618,408.492004 139.782043,410.422485 144.324326,409.176086 
	C144.751663,409.058807 145.262512,409.245880 145.781143,409.296173 
	C144.088150,412.130096 143.647415,412.339600 139.606476,412.298004 
	C133.893326,412.239166 129.560638,409.246674 128.164734,404.395447 
	C126.928757,400.100037 128.811462,395.425140 133.381134,392.419128 
	C139.584656,388.338348 146.408508,386.542786 153.830963,387.934021 
	C160.013489,389.092926 166.165726,390.413361 172.779053,391.752930 
	C171.970810,389.540222 170.275299,389.146118 168.939529,388.395569 
	C161.250244,384.075165 153.382446,380.044586 147.186478,373.510193 
	C146.033783,372.294525 144.786636,370.952911 142.689896,373.167664 
	C140.762482,375.203613 138.848846,373.509369 137.572678,371.737488 
	C137.809326,369.027344 140.156418,370.757843 141.193192,369.635559 
	C141.004761,369.233246 140.908203,368.692139 140.586563,368.393066 
	C137.867447,365.864471 135.848312,362.802551 133.974503,359.652954 
	C132.068237,356.448822 133.321457,354.113739 136.514633,352.944092 
	C142.210007,350.857910 148.688339,356.430176 147.664459,362.377380 
	C146.586075,368.641144 147.212372,369.311432 153.391769,368.601532 
	C155.769836,368.328339 157.226868,369.867615 156.845734,371.810120 
	C155.101257,380.701172 162.637283,382.469910 167.704880,384.054840 
	C172.469040,385.544861 176.194214,388.136292 180.315735,390.383240 
	C182.106064,391.359283 183.642365,393.333130 186.087341,392.182800 
	C187.060486,390.363953 185.679077,388.905212 185.534653,387.304047 
	C185.324432,384.973633 186.179138,383.369934 188.254074,382.501892 
	C190.365814,381.618439 191.743088,382.880524 192.850098,384.469818 
	C193.514023,385.423004 194.306198,386.398254 194.596970,387.482605 
	C197.411484,397.978180 206.273544,399.682892 214.875534,400.570160 
	C231.444611,402.279236 246.657730,396.854248 262.477722,389.946136 
	C259.479218,388.751862 257.493469,389.489349 255.526108,389.988617 
	C241.714661,393.493805 227.947205,393.834045 214.073151,390.076416 
	C185.006821,382.204071 168.401794,351.221375 178.660049,323.910706 
	C184.927765,307.224060 208.694901,290.442047 231.356033,302.011841 
	C238.114944,305.462646 243.324722,310.453308 246.710571,317.204895 
	C250.513412,324.788055 249.533737,332.214996 244.683487,338.899170 
	C240.231689,345.034302 234.043930,347.800415 226.323151,346.271423 
	C219.939560,345.007233 215.206680,339.129578 215.780991,333.049103 
	C216.017227,330.547821 216.615402,328.158417 219.154556,327.121460 
	C220.512772,327.605743 220.543472,328.548370 220.187546,329.259186 
	C218.328522,332.971985 220.234711,335.323303 223.059906,337.237885 
	C226.278473,339.419067 229.773514,339.559143 232.868057,337.225586 
	C240.289627,331.628967 240.293793,322.999939 232.409317,316.539185 
	C224.922607,310.404327 211.969284,310.455078 203.763672,316.113403 
	C193.564896,323.146149 189.333908,339.601501 194.895050,350.622498 
	C195.489502,351.800598 195.947174,353.114075 197.458954,353.458557 
	C199.405502,353.430115 199.292862,350.771027 200.980637,350.448853 
	C201.370377,350.799500 201.778000,350.984497 201.811768,351.222565 
	C204.171692,367.856232 214.270172,373.871948 232.613922,376.459381 
	C248.927383,378.760468 264.825165,376.008209 279.536499,367.994873 
	C305.149078,354.043549 332.239868,344.074921 360.748260,337.945801 
	C362.538910,337.560822 364.333374,337.172516 366.143860,336.907043 
	C367.849976,336.656830 369.579620,336.566956 371.243378,336.018341 
	C362.863861,334.165558 354.867615,335.937256 346.926910,338.333588 
	C335.765717,341.701813 324.562286,345.023315 312.862030,345.776123 
	C293.571564,347.017334 276.071716,342.993256 262.693848,327.678467 
	C260.251007,324.881927 258.706329,321.558228 256.909882,318.364441 
	C255.787659,316.369293 256.490753,312.407562 251.932159,313.532776 
	C251.021637,313.757507 250.590012,311.453125 250.187302,310.199890 
	C244.722778,293.193481 250.493668,277.251770 265.889984,266.787476 
	C284.335785,254.250549 309.107574,258.389618 322.149811,275.776123 
	C326.067780,280.999115 323.816559,286.715057 325.058807,292.280548 
	C320.299194,282.375580 318.330566,270.297333 306.424133,266.194214 
	C295.563385,262.451447 284.585632,263.262360 273.862579,268.113556 
	C258.087006,275.250580 248.395920,290.206299 253.575165,308.696716 
	C253.705154,306.715088 253.816727,305.716187 253.829422,304.716034 
	C254.032257,288.725098 262.828400,278.539612 276.687683,272.560059 
	C290.556061,266.576569 303.986145,266.723633 315.220551,278.708466 
	C320.471466,284.310089 319.851440,291.403900 318.794006,297.924500 
	C316.422516,312.548492 299.789246,321.578583 286.906952,311.360962 
	C286.191010,310.793091 285.538788,309.771606 283.981323,310.438995 
	C283.797668,317.616425 286.254517,323.571350 292.454102,327.697632 
	C306.370819,336.960297 320.985474,338.919495 336.818176,331.623016 
M457.853394,292.114227 
	C455.557922,276.746460 448.621094,262.971466 442.543365,248.864975 
	C448.466461,253.381241 449.841736,260.473633 453.711121,266.366791 
	C454.267426,259.214722 456.107666,252.287247 455.534454,245.143982 
	C455.448761,244.076233 454.739105,242.939667 454.037415,242.058456 
	C446.173645,232.182571 437.007996,223.976746 425.641479,218.091370 
	C414.125610,212.128647 401.730438,208.982239 389.508179,205.159653 
	C379.836365,202.134720 375.027069,205.365509 375.026215,215.533218 
	C375.025208,227.387375 376.044617,239.335312 378.805206,250.709305 
	C386.560181,282.661041 406.533539,304.749725 436.754608,317.440826 
	C443.090576,320.101562 449.969452,321.089325 458.143768,320.692474 
	C449.047119,315.754242 440.202087,312.991852 432.553345,307.950378 
	C424.937775,302.930786 417.373810,297.778076 412.354523,289.736908 
	C425.452911,300.108643 438.466400,310.438049 455.668823,313.259460 
	C442.354706,301.187714 429.685333,288.784882 422.953156,271.665253 
	C428.897766,278.249390 433.987823,285.540070 440.010193,292.040863 
	C446.129242,298.646027 452.223480,305.293488 460.643768,309.307983 
	C457.415863,302.404297 451.894531,296.858398 449.156036,288.660492 
	C454.932495,291.591064 455.015381,297.615387 459.168945,300.888489 
	C458.583588,299.053558 458.134399,297.645508 458.066345,295.737488 
	C458.749664,294.750580 458.549988,293.812042 457.853394,292.114227 
M535.175293,315.482086 
	C533.178162,322.930267 528.569763,329.373535 526.237549,337.082275 
	C529.476135,336.919342 530.492798,334.812042 531.745850,333.175385 
	C550.954285,308.087921 556.074951,280.078949 548.411438,249.705536 
	C542.502014,226.283875 528.270203,207.133209 515.348022,187.359512 
	C513.284485,184.201874 511.555450,185.248230 509.729706,187.925766 
	C501.755280,199.620804 494.047943,211.488449 487.112610,223.824417 
	C478.868591,238.488022 473.239807,254.035934 472.170197,271.012756 
	C470.969116,290.076141 475.904114,307.595032 485.334625,324.006134 
	C487.935059,328.531525 495.303711,336.046051 498.695038,337.488495 
	C493.827240,327.157349 484.501160,318.716553 486.757996,305.858887 
	C488.363434,316.615875 494.817139,324.635742 501.444855,332.707611 
	C500.795319,322.066528 496.299011,312.125549 496.784607,301.385742 
	C500.523834,314.155243 504.600800,326.745850 509.330322,339.240753 
	C509.838104,318.433441 510.071442,297.711273 512.706055,277.079193 
	C514.862549,297.606689 513.655212,318.209290 515.155823,338.848450 
	C520.306213,326.370148 522.302734,313.048004 526.504822,300.340363 
	C526.809265,313.110352 521.857910,325.022034 520.988281,337.637939 
	C528.659180,326.432068 533.471741,314.003113 537.204407,301.041290 
	C538.698730,306.033081 536.356689,310.261566 535.175293,315.482086 
M563.651367,314.612549 
	C563.064514,314.915833 562.477722,315.219147 561.890930,315.522430 
	C581.953369,312.056671 597.414124,300.731995 612.194214,288.127960 
	C599.849182,303.689301 583.623230,313.620453 565.506653,321.049713 
	C566.489319,321.606964 567.257690,321.718414 568.018005,321.677734 
	C584.092163,320.817780 598.084717,314.238464 610.506226,304.706482 
	C637.537659,283.963104 649.726868,256.015594 648.944458,222.124283 
	C648.808411,216.230392 644.969177,212.415955 642.003235,208.103394 
	C640.905518,206.507248 638.872559,206.882278 636.935669,207.073807 
	C626.766846,208.079346 617.550232,212.622452 607.739319,215.024750 
	C593.162415,218.594040 581.128601,227.649124 571.618774,239.644638 
	C564.812439,248.229904 570.308533,257.147644 569.932556,265.959320 
	C574.498901,261.909668 574.752258,255.297470 580.332275,252.265442 
	C572.788574,268.038696 567.850159,284.625214 563.737366,301.533875 
	C570.477295,293.043091 571.378723,281.235596 579.513794,273.561127 
	C574.104919,285.383453 571.217102,298.343262 563.094910,308.936981 
	C576.867004,299.577026 586.235657,285.968567 597.754822,274.440796 
	C589.191772,289.959839 577.511169,302.810974 563.651367,314.612549 
M569.456604,337.136688 
	C558.815552,338.944885 548.295349,341.141144 538.653137,346.506134 
	C549.826355,347.464630 561.098022,345.564331 571.816223,349.927551 
	C560.339050,351.618622 548.714783,350.265717 536.085388,351.734436 
	C543.249390,356.021057 550.663818,356.556152 556.610657,360.523010 
	C552.443848,361.009277 548.680542,359.873871 544.851990,358.933716 
	C541.046692,357.999329 537.470642,355.399536 532.416382,356.840302 
	C539.030579,363.238770 547.112183,366.091003 553.901672,370.906586 
	C542.778076,369.761780 534.888062,361.538269 524.659485,357.231873 
	C525.007141,360.053955 526.511719,360.983582 527.603821,362.178589 
	C551.405212,388.222565 591.829407,396.043030 625.555237,377.858459 
	C634.366455,373.107544 643.166504,368.423431 649.817505,360.641754 
	C654.471130,355.197021 653.454956,348.480988 647.695496,344.284119 
	C633.124451,333.666351 617.309143,326.937134 599.002686,325.749054 
	C580.848389,324.570831 563.498779,326.759216 546.926270,334.345093 
	C545.197510,335.136444 543.133301,335.663239 542.164734,338.091217 
	C545.133911,339.628906 548.041504,338.820160 550.837219,338.080658 
	C557.605774,336.290375 564.439575,334.835297 571.389526,334.049530 
	C573.758911,333.781647 576.436096,332.815735 578.902527,335.090790 
	C575.960022,336.887787 572.933777,336.047363 569.456604,337.136688 
M475.962158,350.599304 
	C465.133209,349.185303 454.337585,351.522369 443.500092,351.314331 
	C457.162415,346.291962 471.396271,346.688751 485.614716,346.403015 
	C474.351807,340.430847 461.964233,338.887024 450.271332,334.917450 
	C461.433472,333.596619 471.663055,338.905853 482.788025,339.603912 
	C480.611420,336.097229 480.304382,335.544464 476.881195,334.166016 
	C447.938934,322.511627 419.122437,320.256317 390.744476,335.882019 
	C382.589600,340.372314 374.486511,345.023895 368.724396,352.720795 
	C367.636780,354.173553 366.517944,355.655792 368.208344,357.039825 
	C370.920227,359.260071 374.254242,361.847321 377.646820,360.595978 
	C384.247070,358.161438 389.024780,361.307556 393.779114,364.625732 
	C400.932800,369.618439 407.558533,375.431580 417.154968,375.145691 
	C419.139282,375.086609 421.160065,376.622559 423.182648,377.373260 
	C425.360474,378.181671 427.559967,379.596802 429.750366,379.597473 
	C443.196716,379.601624 456.704285,381.393951 470.080597,379.084259 
	C482.620544,376.918976 491.152985,368.496948 499.095398,359.384003 
	C499.181488,359.285217 498.861084,358.832062 498.709229,358.497620 
	C496.443604,357.758087 494.934753,359.374573 493.334106,360.401245 
	C483.610352,366.638306 473.253204,371.546234 462.339661,375.279053 
	C460.678650,375.847198 458.816620,377.223358 456.322357,374.824371 
	C469.386963,369.790314 482.104706,365.276886 492.937286,356.838837 
	C482.078125,356.021729 471.939789,360.836548 461.307800,360.944885 
	C461.212708,360.472626 461.117615,360.000336 461.022552,359.528076 
	C469.277863,357.234802 477.533173,354.941528 486.042938,352.577576 
	C485.466705,351.819702 485.382965,351.598236 485.277802,351.587555 
	C482.473785,351.302643 479.667572,351.039459 475.962158,350.599304 
M470.318939,217.768402 
	C458.413635,243.572754 455.519958,270.058807 464.401459,297.395264 
	C466.397949,303.540253 469.168457,309.287476 474.209290,313.751343 
	C474.112610,311.555023 473.479828,309.573395 472.900848,307.576172 
	C470.302399,298.612640 468.130371,289.537506 467.774567,280.186127 
	C467.047272,261.071075 472.148376,243.346680 481.064026,226.581924 
	C488.111694,213.329681 496.885803,201.160919 504.835693,188.475098 
	C507.327148,184.499359 509.803955,180.514435 512.628174,175.987610 
	C515.503418,182.104782 519.230042,186.778244 522.603333,191.693298 
	C531.829041,205.135727 541.658691,218.224899 547.483704,233.695221 
	C555.884705,256.007050 559.440002,278.663177 552.139771,302.000000 
	C550.155090,308.344269 547.565552,314.499268 544.923401,321.632751 
	C550.530151,317.087219 553.245056,311.712860 555.839722,306.355774 
	C566.687500,283.959106 566.311279,260.661530 560.810120,237.105606 
	C555.748230,215.430771 544.364502,196.840775 531.380981,179.185089 
	C528.068115,174.680069 523.970520,170.615646 519.204041,167.444016 
	C517.814636,166.519501 515.125977,165.426025 514.909424,167.108871 
	C514.067871,173.647980 509.735657,171.827667 505.829620,171.780548 
	C504.643829,171.766235 503.148438,172.547440 502.301819,173.443359 
	C497.861786,178.141846 492.470642,181.783051 488.558105,187.136642 
	C481.645233,196.595642 475.870270,206.663086 470.318939,217.768402 
M622.676941,313.294617 
	C619.646667,314.825043 616.616394,316.355469 613.586121,317.885895 
	C622.542664,319.354767 630.568237,316.116241 638.897583,314.489807 
	C631.943848,319.739288 623.474548,320.441132 615.435486,322.900269 
	C617.289673,323.842377 619.129395,324.490967 621.010132,324.648224 
	C633.504028,325.692932 644.653503,321.705933 654.970520,315.086761 
	C665.953552,308.040283 670.417786,296.416260 675.529968,285.253387 
	C677.212341,281.579773 677.534607,277.827576 676.659119,274.034607 
	C675.748047,270.087555 675.143921,266.334747 676.508789,262.285126 
	C677.539490,259.227020 675.776733,256.690613 673.057312,255.254761 
	C670.718018,254.019623 668.202026,252.967010 665.640564,252.332977 
	C657.806030,250.393661 650.762085,254.591187 648.131409,262.209808 
	C644.291443,273.330383 638.820251,283.539856 630.731384,292.231842 
	C627.504150,295.699707 624.433899,299.313690 620.656189,303.579254 
	C630.209595,299.284515 635.922913,292.024475 642.165833,285.349884 
	C637.220703,297.860840 625.767029,304.079010 616.089233,312.128815 
	C620.780701,312.520935 624.157471,308.830231 628.762512,309.599213 
	C626.950745,310.725555 625.138916,311.851898 622.676941,313.294617 
M724.088623,302.435211 
	C719.276855,297.702484 720.227783,293.573822 726.601624,291.524200 
	C732.603821,289.594147 738.418152,292.227325 741.103699,297.925629 
	C742.433838,300.747864 742.199524,303.767883 742.672729,306.702240 
	C744.823975,320.042572 741.197083,327.404388 729.276062,333.600342 
	C727.015442,334.775299 724.704956,335.854187 721.783936,337.288483 
	C731.775696,338.234650 744.320740,333.212097 751.785278,325.707458 
	C761.036865,316.406250 763.340332,303.713593 757.765259,292.755676 
	C752.037659,281.497803 738.854614,274.411713 726.658630,276.392853 
	C720.012268,277.472504 715.166260,280.992920 712.657837,287.678925 
	C710.084412,294.538208 711.541870,300.455902 715.894714,305.843201 
	C719.188965,309.920288 727.128784,311.056793 731.539429,308.441925 
	C733.731018,307.142578 735.004700,305.319946 734.755432,302.710999 
	C734.532288,300.375977 734.019287,298.160156 731.072327,297.528351 
	C731.514587,303.417084 730.595337,304.143829 724.088623,302.435211 
M298.408234,303.772675 
	C296.344391,303.908844 293.125031,301.599060 292.582031,305.031586 
	C292.078278,308.215668 295.421356,309.151611 298.060577,309.652954 
	C301.089996,310.228485 303.978607,309.626373 306.686371,308.005066 
	C316.634430,302.048492 316.133148,285.761017 305.773468,279.396118 
	C295.237000,272.922577 280.237915,275.918213 271.555542,286.230164 
	C262.639587,296.819550 262.458527,312.320068 271.005493,322.514648 
	C275.974548,328.441589 282.209930,332.367249 289.473602,334.746185 
	C292.793884,335.833618 295.981384,337.915192 299.979828,336.760651 
	C298.975861,334.333557 296.761078,334.166595 295.165863,333.152466 
	C286.981995,327.949738 280.025604,321.738434 280.817139,310.983368 
	C281.160583,306.316681 282.496826,301.575134 284.676788,297.324554 
	C287.197968,292.408752 291.867584,289.938232 296.524536,290.814270 
	C300.414673,291.546112 303.416351,293.731873 304.018127,297.819855 
	C304.511658,301.172760 302.266479,302.963013 298.408234,303.772675 
M459.846252,219.221451 
	C460.828003,214.141052 462.505432,220.470078 463.896027,219.075546 
	C466.163330,214.305908 468.383881,209.482574 471.351379,205.099625 
	C474.405151,200.589218 473.400208,197.062531 469.872284,193.177719 
	C463.143311,185.767944 453.783478,183.371658 445.176361,179.647461 
	C441.576233,178.089706 438.532959,181.088943 437.379547,184.282623 
	C434.510529,192.226379 431.421234,200.166870 430.627167,208.699341 
	C430.151550,213.809586 432.424988,217.899078 437.281708,218.981384 
	C440.024719,219.592651 441.582336,221.122833 443.335419,222.810196 
	C445.492615,224.886566 447.655182,226.957581 449.834167,229.011002 
	C451.291138,230.383987 452.693909,231.943344 455.039215,230.819931 
	C457.842865,229.476990 455.878662,227.363831 455.892548,225.581268 
	C455.924866,221.442642 452.739075,217.841995 453.497650,212.936493 
	C456.985687,216.162888 455.992065,220.921890 458.820892,223.883469 
	C460.110596,222.542297 459.544861,221.127228 459.846252,219.221451 
M566.201660,216.928024 
	C566.927368,215.460861 567.094543,213.502502 569.525024,212.986069 
	C569.491882,219.302048 564.660217,224.625992 566.874878,231.078918 
	C569.994568,229.642899 570.013855,225.629837 573.324219,224.695084 
	C574.324158,226.488922 571.855103,228.005203 572.978027,230.093658 
	C578.586426,225.654083 583.132690,220.254761 589.929749,218.058792 
	C591.373169,217.592453 592.356506,216.254639 592.737000,214.728516 
	C594.714905,206.795090 594.910339,198.884430 591.476074,191.302216 
	C590.330261,188.772461 588.034180,187.206009 585.435547,185.712875 
	C581.938171,183.703323 578.978516,186.102234 575.920410,185.583450 
	C566.131714,183.922928 559.902954,189.026169 554.393005,196.055664 
	C552.244263,198.796875 551.763428,201.489868 553.732117,204.263275 
	C557.153625,209.083328 558.432251,214.836838 560.958496,220.038269 
	C561.519165,221.192490 561.629883,222.703934 563.609192,222.853943 
	C564.968933,221.442917 565.428650,219.501205 566.201660,216.928024 
M402.334564,307.767120 
	C395.508667,302.193329 388.696747,296.604767 382.907471,289.892059 
	C388.672577,290.979187 391.441193,296.909210 397.135956,298.316681 
	C397.324524,296.205170 396.069855,295.209137 395.112335,294.151825 
	C389.699432,288.174622 385.388428,281.459229 381.934448,274.215790 
	C379.645996,269.416748 377.635590,264.479309 375.644867,259.545685 
	C373.481384,254.183960 368.775696,252.285248 363.824005,251.535233 
	C359.348389,250.857330 357.400330,255.051895 355.188873,258.048492 
	C353.519196,260.310944 352.400635,262.971375 350.877594,265.352875 
	C348.494080,269.079803 348.580811,272.761475 350.300812,276.749481 
	C352.561768,281.991699 356.493591,285.805054 361.575409,287.464874 
	C368.958527,289.876373 374.701904,293.518677 377.928986,300.835968 
	C378.922546,303.088837 381.068085,305.463623 383.834473,304.092377 
	C386.514709,302.763855 388.172394,303.944214 390.267670,304.940582 
	C394.581116,306.991730 398.511749,310.141724 404.290924,310.414978 
	C403.483795,309.249847 403.121429,308.726807 402.334564,307.767120 
M518.630188,370.718048 
	C517.408203,367.866791 516.795471,364.706238 513.996948,361.518250 
	C513.996948,372.087463 513.834351,381.743042 514.051270,391.390106 
	C514.209167,398.412262 516.292053,400.240326 523.256836,399.638550 
	C526.932434,399.320923 528.452576,401.236237 529.372009,404.156525 
	C530.288086,407.066101 528.939331,409.686707 528.098816,412.381622 
	C527.496765,414.312317 525.588684,416.091858 527.078247,418.376404 
	C533.261963,418.332855 539.255676,412.290649 541.260742,402.682892 
	C543.870422,390.177917 540.337646,376.634949 528.014526,370.705658 
	C528.928894,373.789948 531.899597,376.211609 531.266174,380.085907 
	C527.539917,374.840393 523.950500,369.559906 519.573486,364.234375 
	C520.429626,368.689758 522.486389,372.343781 522.191772,376.890686 
	C520.014526,375.248260 519.730042,373.169067 518.630188,370.718048 
M507.915710,368.317261 
	C504.975891,372.316010 505.678192,378.070190 501.368866,382.493805 
	C501.143860,375.922699 505.119324,371.314697 505.412964,365.204254 
	C503.730133,367.311371 502.542725,368.908295 501.241882,370.406769 
	C496.977356,375.319244 494.283600,380.372833 497.503845,387.154266 
	C498.746246,389.770660 498.103821,393.055084 497.451111,396.015015 
	C497.057373,397.800781 496.562744,399.567657 496.249237,401.366699 
	C496.019623,402.684387 495.924164,404.165710 497.297852,404.946503 
	C498.852081,405.829926 499.820618,404.606964 500.568634,403.531067 
	C502.303070,401.036285 504.660370,399.218109 506.843475,397.176422 
	C508.856873,395.293365 510.740540,393.131378 510.830109,389.966461 
	C511.022827,383.157379 511.419556,376.354340 511.667633,369.546448 
	C511.763611,366.912933 511.683258,364.273010 511.683258,361.635986 
	C511.309326,361.636200 510.935394,361.636414 510.561462,361.636627 
	C509.769867,363.628510 508.978271,365.620392 507.915710,368.317261 
M391.351593,309.274261 
	C388.714081,309.285919 387.220459,310.171692 389.176178,312.817902 
	C392.361328,317.127625 404.174194,319.862732 409.954865,317.524841 
	C403.813812,314.741882 397.943146,312.081421 391.351593,309.274261 
M342.025848,354.495209 
	C341.923187,354.623047 341.782013,354.736908 341.728973,354.882782 
	C341.678650,355.021301 341.665436,355.302246 341.729889,355.334900 
	C344.181274,356.576202 346.838226,355.399597 349.378876,356.003754 
	C353.072784,356.882111 353.045654,354.874847 352.328156,352.236053 
	C348.625458,351.699707 345.627686,353.113647 342.025848,354.495209 
M492.233795,377.645874 
	C494.751709,375.769531 496.322723,373.292542 497.536987,369.578949 
	C494.026367,370.963531 491.832031,372.900574 489.914612,375.011261 
	C487.996338,377.122803 489.510101,377.773438 492.233795,377.645874 
M672.568542,353.802917 
	C674.951843,357.612305 677.391907,355.311829 679.833252,354.193390 
	C677.473511,353.055573 675.305359,350.364563 672.568542,353.802917 
M397.606598,323.562805 
	C400.303894,323.983521 403.011871,324.501556 405.477509,322.700439 
	C402.626770,322.127594 399.639496,318.731262 397.606598,323.562805 
z"/>
<path fill="#FCD563" opacity="1.000000" stroke="none" 
	d="
M327.845276,377.596588 
	C342.128357,372.290405 355.639374,373.889954 368.852753,380.006683 
	C371.593658,381.275543 374.279297,382.988190 376.795135,379.466888 
	C379.403717,381.918091 379.941254,385.769226 383.657227,387.202484 
	C385.569946,382.405457 387.509491,383.296051 390.001068,386.884583 
	C392.361145,390.283813 395.020111,393.529022 398.378021,396.092712 
	C400.686554,397.855286 402.927673,399.666718 405.657623,397.648376 
	C412.447632,410.452423 424.014160,414.446838 436.864594,414.555511 
	C450.015869,414.666748 459.702362,406.524658 469.024109,398.153473 
	C465.907715,405.282898 459.868378,409.465668 453.790283,413.589172 
	C452.838440,414.234985 451.738434,414.814606 450.627502,415.049835 
	C440.859406,417.118164 434.594940,426.154724 424.596985,427.961670 
	C423.273346,426.531891 425.673248,425.828979 425.199432,423.890533 
	C417.181091,423.785706 409.251801,418.998596 401.150055,423.131195 
	C399.385742,421.281860 401.619324,420.235962 400.763794,418.607483 
	C397.892853,417.770721 394.835632,417.742645 391.950653,419.320312 
	C390.662567,420.024658 389.640930,421.205322 388.462860,422.124268 
	C386.783936,423.433838 384.911804,424.133026 382.907898,423.016266 
	C381.075439,421.995056 379.792084,420.433472 379.988129,418.177490 
	C380.195557,415.790222 381.527985,414.187653 383.832367,413.452515 
	C389.630524,411.602722 395.371857,412.380463 401.036774,414.008240 
	C406.626282,415.614349 411.993561,417.972839 417.774445,418.942047 
	C419.396759,419.214020 421.006836,419.559204 422.677795,419.681458 
	C409.327454,414.506805 396.816895,407.904480 385.148621,399.600311 
	C375.772186,392.927277 365.991913,386.881805 354.545563,384.210968 
	C346.433044,382.318085 338.666168,383.210632 331.247772,386.932465 
	C323.718842,390.709747 318.683350,399.948212 319.954102,407.441315 
	C321.851868,418.631744 327.677094,424.821655 337.654205,426.249481 
	C344.359070,427.209015 351.149597,424.213043 353.500275,419.258240 
	C355.616150,414.798309 354.046173,409.195770 349.965607,406.450470 
	C348.298187,405.328705 346.591797,404.903046 344.867798,406.119781 
	C342.865753,407.532837 343.927948,408.887146 345.047302,410.292175 
	C345.891968,411.352325 345.729706,412.501312 344.655060,413.376221 
	C343.594910,414.239319 342.474884,414.023621 341.421967,413.322418 
	C339.763092,412.217712 338.905426,410.595123 339.033813,408.656921 
	C339.188934,406.315491 340.537445,404.644531 342.643036,403.636078 
	C346.907104,401.593872 351.189240,401.774658 354.947021,404.525818 
	C359.375732,407.768280 360.924866,412.518646 359.825165,417.813202 
	C357.582001,428.613068 345.494080,434.921326 333.271515,431.718567 
	C321.738129,428.696381 314.278992,421.253784 311.964996,409.636749 
	C309.362305,396.570465 315.327118,385.111115 327.845276,377.596588 
z"/>
<path fill="#FCD563" opacity="1.000000" stroke="none" 
	d="
M615.743286,413.840088 
	C612.456421,415.353210 609.496521,416.683746 606.536560,418.014313 
	C611.272766,418.776581 615.350464,416.806854 619.577637,415.664398 
	C624.077026,414.448364 628.495972,412.957458 633.161194,412.426392 
	C635.880310,412.116852 638.474365,412.476501 640.979736,413.531219 
	C644.051880,414.824585 645.621460,416.914642 643.947021,420.208649 
	C642.309387,423.430359 639.675842,423.596619 636.776489,421.957886 
	C635.477478,421.223785 634.383301,420.034912 633.019409,419.526855 
	C629.815918,418.333557 626.435486,416.424713 623.940979,420.934448 
	C622.849670,422.907288 620.564209,422.559418 618.955200,421.969879 
	C611.955444,419.405151 605.623657,423.012512 599.349304,423.360596 
	C597.923096,425.203094 600.033936,426.532715 599.111389,428.307678 
	C594.336426,425.303009 588.982727,423.867981 585.017639,419.752899 
	C582.553345,417.195496 578.763367,416.776306 575.527405,415.516510 
	C565.297729,411.533905 555.236450,401.768005 552.000000,391.834534 
	C556.060303,397.266632 561.298584,401.429291 566.237122,405.932098 
	C580.136780,418.605621 597.274109,416.285278 611.001282,407.573975 
	C616.813232,403.885742 622.190674,399.509003 627.733704,395.402161 
	C630.850830,393.092682 633.177124,390.045685 635.461182,386.951080 
	C636.390137,385.692505 636.823547,383.772675 638.953064,383.759216 
	C641.354309,384.719727 639.854248,387.012299 640.792419,388.954041 
	C644.312805,386.817169 647.745117,384.611969 651.289124,382.603973 
	C665.376465,374.622314 680.253235,371.607208 695.907837,376.922333 
	C710.312195,381.812927 718.104065,400.925934 711.975098,415.122528 
	C705.736938,429.572052 687.707092,436.556854 674.335510,429.704224 
	C666.374146,425.624207 662.836792,415.936279 666.612427,408.552612 
	C669.351562,403.196014 675.339050,400.611176 680.449219,402.644897 
	C683.495117,403.857056 685.428589,405.989746 685.337646,409.447052 
	C685.239807,413.163391 683.406006,413.907013 680.130493,412.573090 
	C680.012817,410.051575 685.054626,408.107758 680.676208,405.874390 
	C677.345398,404.175323 674.522461,405.410492 672.356445,408.235779 
	C669.650818,411.765015 669.421570,415.638885 671.373169,419.512054 
	C674.021362,424.767639 678.941895,426.464874 684.304932,426.487427 
	C694.480469,426.530243 702.748047,420.187378 704.730591,411.318604 
	C707.037842,400.996735 702.560547,391.339996 693.254211,386.631775 
	C684.165649,382.033813 674.974243,382.762085 665.598755,385.829712 
	C654.657776,389.409485 645.282043,395.758942 635.940002,402.151459 
	C629.591553,406.495544 622.953003,410.270447 615.743286,413.840088 
z"/>
<path fill="#FCD563" opacity="1.000000" stroke="none" 
	d="
M735.036133,259.686859 
	C755.306458,260.773193 769.626587,269.677704 776.599792,289.328430 
	C779.984680,286.607513 782.989075,283.569946 786.890747,287.313507 
	C789.331238,289.655121 790.042725,292.554260 788.500000,295.507446 
	C786.171631,299.964386 782.296875,299.065460 778.200378,297.517456 
	C776.074768,302.656647 776.917847,308.549011 773.333862,313.593658 
	C771.564270,310.214447 772.958740,307.150024 773.138123,304.286621 
	C774.367859,284.664886 763.221497,269.753784 743.896912,265.318542 
	C737.783936,263.915527 731.634949,263.785278 725.515442,264.538147 
	C719.796082,265.241791 714.741882,267.354004 711.002808,272.331177 
	C706.593140,278.201172 699.302795,281.372406 696.096741,288.497437 
	C699.019409,274.990417 714.607666,260.115692 735.036133,259.686859 
z"/>
<path fill="#FCD563" opacity="1.000000" stroke="none" 
	d="
M292.799988,415.158295 
	C291.066803,415.712677 289.617615,416.043854 288.151550,416.260986 
	C280.513702,417.392273 277.050720,412.990234 279.630371,405.555634 
	C282.170685,398.234497 288.017059,393.798096 293.600647,389.046143 
	C297.272797,385.920959 300.815735,382.646240 304.878174,380.028839 
	C306.330994,379.092773 307.765472,377.718872 310.701660,378.782379 
	C305.248932,383.333984 299.429199,387.271759 300.665070,394.669067 
	C298.176331,396.035065 297.035309,393.828461 294.709869,394.081451 
	C290.888123,400.562012 296.000610,408.164368 292.799988,415.158295 
z"/>
<path fill="#FCD563" opacity="1.000000" stroke="none" 
	d="
M734.956848,391.035828 
	C739.918640,394.928284 743.481201,399.450592 745.532410,405.064392 
	C747.403015,410.183868 746.012573,415.013428 742.402405,416.342072 
	C738.994873,417.596161 735.256287,414.655518 732.236206,410.714081 
	C729.878906,407.637573 730.264709,405.261505 731.213074,402.238037 
	C731.972046,399.818115 732.049500,397.353973 730.396545,394.661957 
	C725.860901,396.677338 724.964844,393.815125 724.766907,390.233917 
	C724.582581,386.898956 722.414429,384.901947 720.141785,382.877838 
	C718.385132,381.313324 715.980469,380.358398 715.251892,377.658752 
	C722.763855,380.532501 728.659180,385.768799 734.956848,391.035828 
z"/>
<path fill="#FCD563" opacity="1.000000" stroke="none" 
	d="
M859.019531,365.023376 
	C861.416870,360.159180 862.346741,355.370758 861.222229,350.328217 
	C860.321472,346.289276 861.051147,342.713959 864.201233,339.872498 
	C865.426819,338.766876 866.884033,338.540405 868.297913,339.624420 
	C871.671875,342.211365 872.238220,346.019623 871.317261,349.576385 
	C867.823425,363.069000 862.872620,375.838684 850.941101,384.453888 
	C850.285034,384.927551 849.611694,385.509064 848.144714,384.464508 
	C851.368835,381.186646 851.180664,377.663208 850.203552,373.097687 
	C849.146301,368.157715 854.323914,366.296326 859.019531,365.023376 
z"/>
<path fill="#FCD563" opacity="1.000000" stroke="none" 
	d="
M153.508972,349.498932 
	C153.418198,348.615875 153.300873,348.113434 153.344925,347.625610 
	C153.863876,341.878113 156.665756,338.103149 159.975311,338.654236 
	C163.221512,339.194794 165.731964,345.418701 164.298447,350.122070 
	C163.405380,353.052277 162.905914,355.808319 163.694412,358.872498 
	C164.532364,362.128845 166.160507,364.140015 169.189133,365.948730 
	C172.981903,368.213745 176.098831,371.873779 174.504242,376.970947 
	C173.686279,379.585632 175.620529,381.360443 175.676544,383.633484 
	C168.619843,382.519806 157.172943,365.007202 153.508972,349.498932 
z"/>
<path fill="#FCD563" opacity="1.000000" stroke="none" 
	d="
M234.985077,418.036224 
	C229.901321,420.909515 225.152222,423.637604 220.351395,426.271454 
	C218.045364,427.536621 215.593460,428.393860 214.546051,431.296082 
	C213.962616,432.912720 212.063278,433.507507 210.325424,433.396637 
	C207.770340,433.233673 205.407883,433.866882 203.036285,434.654755 
	C200.308350,435.560944 198.045563,434.749420 196.603836,432.331055 
	C194.994812,429.632080 196.150345,427.208527 197.889359,425.015961 
	C199.544617,422.929077 201.201111,422.470123 203.868118,423.934509 
	C208.056107,426.234039 212.296509,423.730347 216.331253,422.731934 
	C225.775757,420.394897 234.044067,415.352631 242.317612,410.414490 
	C244.096909,409.352539 245.762680,407.796112 249.564697,408.924133 
	C244.251434,412.249298 239.774948,415.050812 234.985077,418.036224 
z"/>
<path fill="#FCD563" opacity="1.000000" stroke="none" 
	d="
M756.494446,359.594452 
	C747.997620,355.529724 739.024048,359.420654 730.688782,357.110321 
	C729.189270,356.694702 727.423096,356.794250 726.193176,354.722412 
	C730.851624,354.722412 735.036987,354.795593 739.218628,354.702057 
	C743.487061,354.606598 747.458801,354.029358 749.575867,349.383087 
	C750.773621,346.754486 753.442017,346.429626 756.063538,346.826691 
	C758.476868,347.192200 759.998596,348.670593 760.247925,351.112152 
	C760.588501,354.446594 761.097412,357.947144 756.494446,359.594452 
z"/>
<path fill="#FCD563" opacity="1.000000" stroke="none" 
	d="
M282.506317,357.811523 
	C279.077606,356.958923 276.220123,356.866577 273.502594,358.822479 
	C269.885315,361.426025 267.399567,358.885437 265.563354,356.335358 
	C263.805511,353.894165 263.701782,350.918640 266.277893,348.672516 
	C268.897217,346.388794 272.584595,345.951660 274.327698,348.644989 
	C278.836792,355.612213 285.437378,354.818817 292.050293,354.731903 
	C293.601959,354.711487 295.154053,354.728851 296.712799,355.217102 
	C292.348267,357.694183 287.801727,358.691833 282.506317,357.811523 
z"/>
<path fill="#FCD563" opacity="1.000000" stroke="none" 
	d="
M747.732788,395.929688 
	C754.768677,402.494781 759.832153,409.901215 761.708984,419.233978 
	C762.047546,420.917145 762.340332,422.520233 761.432129,424.060242 
	C760.315552,425.953522 759.904663,429.212036 756.899048,428.408112 
	C754.009338,427.635315 752.675598,424.220184 753.526733,421.936951 
	C757.413757,411.510468 752.724487,403.940369 746.148376,396.759979 
	C745.857483,396.442322 745.806091,395.905243 745.654846,395.501709 
	C746.461304,394.854645 746.952148,395.446045 747.732788,395.929688 
z"/>
<path fill="#FCD563" opacity="1.000000" stroke="none" 
	d="
M270.861450,412.773254 
	C270.254608,415.460052 270.054657,417.709442 271.015839,419.982239 
	C272.209442,422.804626 271.127625,425.158722 269.138000,427.175110 
	C268.207703,428.117828 266.999725,428.151367 265.956116,427.406189 
	C263.591370,425.717560 262.459930,423.200470 262.938263,420.474548 
	C264.473633,411.724701 268.643738,404.448547 276.156860,399.123962 
	C273.769196,403.332275 271.518768,407.546143 270.861450,412.773254 
z"/>
<path fill="#FCD563" opacity="1.000000" stroke="none" 
	d="
M339.464417,323.595917 
	C336.946960,321.788452 336.257965,319.720642 337.773193,317.355103 
	C339.172516,315.170532 341.408661,314.552490 343.893433,314.860992 
	C345.245575,315.028931 346.812622,315.452789 347.149750,316.804840 
	C347.762299,319.261505 345.741577,320.722137 344.301819,322.258514 
	C343.133118,323.505615 341.643555,324.278229 339.464417,323.595917 
z"/>
<path fill="#FCD563" opacity="1.000000" stroke="none" 
	d="
M677.701111,322.929565 
	C676.919373,321.686371 676.141052,320.716431 675.984314,319.654694 
	C675.675293,317.561890 676.330139,315.647858 678.511414,314.876587 
	C680.466797,314.185181 682.058350,315.164032 683.193726,316.707672 
	C684.648315,318.685333 683.701904,320.459717 682.357910,322.019714 
	C681.207764,323.354614 679.761169,324.003113 677.701111,322.929565 
z"/>
<path fill="#FCD563" opacity="1.000000" stroke="none" 
	d="
M692.635620,324.840881 
	C691.010193,323.469818 690.623718,322.207855 692.144287,320.958191 
	C693.306519,320.003021 694.577454,320.132812 695.751343,320.972260 
	C696.576477,321.562256 697.261536,322.390717 696.964600,323.448578 
	C696.355835,325.617249 694.642761,325.320679 692.635620,324.840881 
z"/>
<path fill="#FCD563" opacity="1.000000" stroke="none" 
	d="
M320.717255,268.470947 
	C318.136322,267.875793 317.203735,266.537476 318.826447,264.586609 
	C319.896362,263.300354 321.792450,263.294403 322.803711,264.479095 
	C324.585632,266.566589 322.845490,267.617981 320.717255,268.470947 
z"/>
<path fill="#FCD563" opacity="1.000000" stroke="none" 
	d="
M329.752258,324.989838 
	C326.536743,323.262939 328.384338,321.990753 329.850220,320.885254 
	C330.976135,320.036102 332.215912,320.380798 332.723389,321.675934 
	C333.676605,324.108734 332.401398,325.048462 329.752258,324.989838 
z"/>
<path fill="#FCD563" opacity="1.000000" stroke="none" 
	d="
M701.082275,288.707825 
	C701.758606,287.233002 701.596924,285.617615 703.668701,285.147614 
	C703.642212,288.259521 703.542053,291.183960 702.031372,294.486053 
	C700.313354,292.542389 700.817627,290.771423 701.082275,288.707825 
z"/>
<path fill="#FCD563" opacity="1.000000" stroke="none" 
	d="
M457.875793,295.987488 
	C453.640747,291.218384 452.565857,285.016327 450.604706,279.147400 
	C455.143372,282.451019 455.536957,287.792542 457.712341,292.617981 
	C458.549988,293.812042 458.749664,294.750580 457.875793,295.987488 
z"/>
</svg>
